<svg width="176" height="19" fill="none" xmlns="http://www.w3.org/2000/svg"><path d="M14.238 13.828c0 .649-.12 1.207-.363 1.676a3.61 3.61 0 01-.95 1.195 5.236 5.236 0 01-1.382.809 9.933 9.933 0 01-1.617.48c-.563.117-1.13.196-1.7.235a20.365 20.365 0 01-3.094 0 14.902 14.902 0 01-1.546-.176c-.516-.086-1.023-.2-1.523-.34a9.044 9.044 0 01-1.418-.55L.62 2.061c.438-.18.902-.34 1.395-.48.492-.148.992-.27 1.5-.363A15.144 15.144 0 015.05.996a13.5 13.5 0 013.152.023c.57.07 1.117.188 1.64.352a7.061 7.061 0 011.466.645c.453.257.847.578 1.183.96.344.383.61.829.797 1.337.195.507.293 1.093.293 1.757 0 .438-.063.848-.188 1.23a3.417 3.417 0 01-.539 1.032 3.43 3.43 0 01-.855.785 3.799 3.799 0 01-1.137.469c.508.133.969.328 1.383.586.422.258.777.57 1.066.937a4 4 0 01.68 1.243c.164.46.246.953.246 1.476zm-5.953-6.68c0-.226-.047-.418-.14-.574a1.244 1.244 0 00-.352-.398 1.326 1.326 0 00-.445-.223 1.485 1.485 0 00-.422-.07c-.156 0-.309.023-.457.07a4.126 4.126 0 00-.434.164l-.07 2.602c.18 0 .402-.016.668-.047a2.79 2.79 0 00.762-.2c.25-.109.46-.265.632-.468.172-.211.258-.496.258-.856zm-1.664 3.82a3.01 3.01 0 00-.656.071l-.047 2.672c.117.023.23.047.34.07.117.016.23.024.34.024.164 0 .343-.016.539-.047a1.75 1.75 0 00.55-.211c.172-.11.313-.254.422-.434.118-.18.176-.418.176-.715 0-.296-.058-.539-.176-.726a1.219 1.219 0 00-.41-.434 1.344 1.344 0 00-.539-.21 2.769 2.769 0 00-.539-.06zm21.094-2.437c0 .68-.047 1.36-.14 2.04a48.48 48.48 0 00-3.985.421l-3.961.563c.203.562.52 1.011.95 1.347.437.336.956.504 1.558.504.312 0 .652-.058 1.02-.176a8.853 8.853 0 001.113-.433c.367-.18.718-.371 1.054-.574.336-.204.625-.387.867-.551l-.562 5.32a5.098 5.098 0 01-.996.598 6.602 6.602 0 01-1.102.398c-.383.102-.77.176-1.16.223a9.63 9.63 0 01-1.148.07 6.75 6.75 0 01-2.121-.316 6.427 6.427 0 01-1.747-.88 6.73 6.73 0 01-1.359-1.347 7.841 7.841 0 01-.973-1.687 9.743 9.743 0 01-.585-1.934 10.73 10.73 0 01-.2-2.062c0-.727.067-1.453.2-2.18a11.12 11.12 0 01.597-2.098 9.125 9.125 0 011.02-1.863 7.362 7.362 0 011.441-1.512 6.43 6.43 0 011.852-1.007c.695-.243 1.46-.364 2.297-.364.695 0 1.328.098 1.898.293.578.188 1.09.453 1.535.797.453.336.844.738 1.172 1.207.336.469.61.985.82 1.547.22.555.38 1.145.48 1.77.11.617.165 1.246.165 1.886zm-4.688-.61a3.29 3.29 0 00-.07-.667 2.04 2.04 0 00-.234-.633 1.285 1.285 0 00-.41-.457 1.067 1.067 0 00-.645-.187c-.313 0-.59.085-.832.257a2.357 2.357 0 00-.61.633c-.171.25-.312.524-.421.82-.11.297-.192.57-.246.82l3.468-.327v-.258zM40.5 12c0 1.07-.188 1.996-.563 2.777a5.273 5.273 0 01-1.523 1.922c-.64.5-1.395.871-2.262 1.113a10.52 10.52 0 01-2.777.352c-.383 0-.805-.05-1.266-.152a16.57 16.57 0 01-1.382-.375c-.47-.157-.922-.32-1.36-.492-.43-.18-.812-.348-1.148-.504l.515-4.594a8.39 8.39 0 002.203.914 9.83 9.83 0 002.93.293c.211-.016.41-.05.598-.106.195-.062.36-.152.492-.27.133-.116.2-.284.2-.503a.532.532 0 00-.141-.375.958.958 0 00-.364-.258 1.905 1.905 0 00-.504-.152 4.704 4.704 0 00-.55-.082 5.848 5.848 0 00-.504-.024h-.375a5.14 5.14 0 01-1.84-.316 4.205 4.205 0 01-1.418-.89 4.13 4.13 0 01-.914-1.407 4.973 4.973 0 01-.328-1.84c0-.922.183-1.746.55-2.472a5.795 5.795 0 011.489-1.864 6.748 6.748 0 012.144-1.183 7.706 7.706 0 012.496-.41c.383 0 .778.015 1.184.046a11.364 11.364 0 012.39.41c.383.11.747.247 1.09.41l-.445 4.759c-.531-.18-1.09-.329-1.676-.446a8.027 8.027 0 00-1.699-.187 9.91 9.91 0 00-.398.011c-.157 0-.325.012-.504.036a4.328 4.328 0 00-.528.082 1.99 1.99 0 00-.48.164.874.874 0 00-.34.258.557.557 0 00-.117.386c.008.172.07.305.188.399.124.093.28.164.468.21.196.04.407.06.633.06.234 0 .465-.005.691-.013.227-.015.438-.027.633-.035a3.4 3.4 0 01.48-.011c.626.039 1.188.171 1.688.398s.922.527 1.266.902c.351.375.617.825.797 1.348.187.516.281 1.086.281 1.711zM53.39 1.477l-.117 4.968-3.492.14-.422 10.876-4.945.258-.445-10.875-3.492.187.14-5.531 12.774-.023zm81.071 5.718c0 .758-.113 1.43-.34 2.016a4.997 4.997 0 01-.937 1.547 5.53 5.53 0 01-1.383 1.113 9.343 9.343 0 01-1.711.738c-.602.188-1.227.329-1.875.422-.649.086-1.285.133-1.91.14v4.993h-5.461v-2.602c.008-.843.011-1.68.011-2.507.008-.836.012-1.676.012-2.52l.024-2.613a118.5 118.5 0 00.011-2.86c-.007-.953.012-1.914.059-2.882a20.97 20.97 0 016.094-.891c.601 0 1.203.05 1.804.152a8.339 8.339 0 011.723.457 7.337 7.337 0 011.535.797c.477.313.887.688 1.231 1.125.343.438.613.938.808 1.5.203.563.305 1.188.305 1.875zm-5.203.399c0-.508-.156-.903-.469-1.184-.305-.289-.703-.433-1.195-.433a3.04 3.04 0 00-.516.046 4.559 4.559 0 00-.492.094l-.141 3.422c.11.016.215.024.317.024h.316c.281 0 .551-.047.809-.141.265-.094.5-.227.703-.399.203-.18.363-.386.48-.62.125-.243.188-.512.188-.81zm16.148 4.195l-.492 5.203-9.867.774.375-16.735h6.094l-.868 10.758h4.758zm15.328 5.203l-5.812.75-.703-2.648h-2.672l-.586 2.648-5.977-.586 4.664-15.61 6.516-.327 4.57 15.773zm-6.937-5.484l-.891-4.078-.867 4.078h1.758zm21.726.562c0 .883-.011 1.758-.035 2.625-.015.86-.043 1.727-.082 2.602l-6.75-.117a95.26 95.26 0 00.61-4.137 33.86 33.86 0 00.257-4.184 14.958 14.958 0 00-.058-1.254 11.856 11.856 0 00-.106-.878 4.877 4.877 0 00-.175-.832 2.037 2.037 0 00-.27-.61c-.102-.164-.226-.246-.375-.246-.266 0-.492.078-.68.234a1.96 1.96 0 00-.457.61 3.88 3.88 0 00-.281.82 9.48 9.48 0 00-.164.914 18.77 18.77 0 00-.07.867c-.008.266-.012.485-.012.657a387.59 387.59 0 00-.094 4.125 371.504 371.504 0 01-.093 4.125l-5.977.257c.156-2.757.305-5.5.445-8.226.149-2.727.266-5.469.352-8.227l5.531-.28-.047 1.874c.219-.266.453-.516.703-.75.258-.234.532-.434.821-.598.289-.171.593-.304.914-.398a3.467 3.467 0 011.031-.152c.664 0 1.246.109 1.746.328.5.218.93.515 1.289.89.359.375.66.82.902 1.336.243.508.438 1.051.586 1.63.149.577.262 1.183.34 1.816.078.625.129 1.242.153 1.851.031.61.046 1.2.046 1.77v1.558z" fill="#333"/><path d="M71.156 1.477l-.117 4.968-3.492.14-.422 10.876-4.945.258-.446-10.875-3.492.187.14-5.531 12.774-.023zm14.918 7.546c0 .711-.082 1.399-.246 2.063a7.908 7.908 0 01-.715 1.851 7.54 7.54 0 01-1.125 1.594 7.052 7.052 0 01-1.488 1.23 7.312 7.312 0 01-1.793.81 7.39 7.39 0 01-2.063.28c-.703 0-1.375-.09-2.015-.269a7.815 7.815 0 01-1.781-.75 7.606 7.606 0 01-1.512-1.172 7.796 7.796 0 01-1.148-1.523 8.337 8.337 0 01-.739-1.805 8.089 8.089 0 01-.012-3.996 8.244 8.244 0 01.704-1.852 8.151 8.151 0 011.125-1.593 7.454 7.454 0 011.465-1.254 7.16 7.16 0 011.769-.82 6.757 6.757 0 012.004-.294c1.133 0 2.164.176 3.094.528.937.351 1.734.855 2.39 1.511a6.567 6.567 0 011.535 2.368c.368.922.551 1.953.551 3.093zm-5.203.305c0-.336-.05-.66-.152-.973a2.52 2.52 0 00-.422-.843 2.082 2.082 0 00-.703-.598 1.88 1.88 0 00-.95-.234c-.367 0-.695.066-.984.199a2.276 2.276 0 00-1.219 1.36 2.858 2.858 0 00-.164.972c0 .328.047.656.141.984.094.328.234.625.422.89.187.267.418.481.691.645.281.165.606.247.973.247s.695-.07.984-.211c.297-.149.547-.344.75-.586.203-.25.36-.535.469-.856.11-.32.164-.652.164-.996zM100.863 1.5c-.351 2.75-.652 5.488-.902 8.215-.25 2.719-.488 5.457-.715 8.215l-4.805.351.211-1.804c-.156.18-.34.335-.55.468a3.22 3.22 0 01-.657.328 4.466 4.466 0 01-.726.176 4.51 4.51 0 01-.715.035 4.017 4.017 0 01-1.5-.304 5.224 5.224 0 01-1.29-.797 6.519 6.519 0 01-1.054-1.16 8.551 8.551 0 01-.797-1.395 8.856 8.856 0 01-.492-1.5c-.11-.508-.164-1-.164-1.476 0-.704.012-1.43.035-2.18.031-.758.082-1.516.152-2.274.07-.757.16-1.507.27-2.25.117-.742.262-1.453.434-2.132.953.046 1.91.09 2.87.129.962.039 1.919.05 2.872.035l-.54 2.05c-.171.68-.327 1.368-.468 2.063-.14.687-.254 1.379-.34 2.074a17.168 17.168 0 00-.129 2.11c0 .164.008.398.024.703.015.304.054.605.117.902.07.297.172.559.305.785.14.219.335.328.585.328.297 0 .563-.125.797-.375.235-.258.442-.601.621-1.03.18-.43.332-.927.457-1.49.133-.562.243-1.148.329-1.757a29.61 29.61 0 00.222-1.863c.055-.625.094-1.211.118-1.758.03-.555.05-1.05.058-1.488.016-.438.023-.778.023-1.02a8.712 8.712 0 00-.046-.914 100.066 100.066 0 003.023.047h1.172a31.81 31.81 0 001.195-.047zm14.438 5.203c0 .61-.055 1.164-.164 1.664a4.89 4.89 0 01-.492 1.36c-.227.414-.52.796-.879 1.148a7.83 7.83 0 01-1.301 1.008l2.789 4.969-5.274 1.03-1.804-4.991-1.453.046-.211 4.876h-5.039c.039-1.782.074-3.555.105-5.32.039-1.766.082-3.54.129-5.321l.047-2.672c.016-.883.047-1.773.094-2.672a15.34 15.34 0 011.617-.504 14.268 14.268 0 011.594-.304 16.177 16.177 0 011.629-.153 30.188 30.188 0 011.699-.047c.89 0 1.75.125 2.578.375.836.242 1.574.61 2.215 1.102a5.495 5.495 0 011.535 1.84c.39.734.586 1.59.586 2.566zm-5.25.375a2.76 2.76 0 00-.141-.902 1.844 1.844 0 00-.398-.703 1.682 1.682 0 00-.657-.47 2.189 2.189 0 00-.914-.175c-.156 0-.308.012-.457.035a2.646 2.646 0 00-.433.082l-.188 4.36h.282c.335 0 .675-.043 1.019-.13.352-.085.664-.218.938-.398.281-.18.507-.41.679-.691.18-.281.27-.617.27-1.008z" fill="#EC1F46"/></svg>